<?xml version="1.0" encoding="utf-8"?>
<!-- Generator: Adobe Illustrator 21.0.2, SVG Export Plug-In . SVG Version: 6.00 Build 0)  -->
<svg version="1.1" id="Layer_1" xmlns="http://www.w3.org/2000/svg" xmlns:xlink="http://www.w3.org/1999/xlink" x="0px" y="0px"
	 viewBox="0 0 70 70" style="enable-background:new 0 0 70 70;" xml:space="preserve">
<style type="text/css">
	.st0{fill:#BAC900;}
</style>
<g>
	<g>
		<g>
			<path class="st0" d="M19.2,2.3c1.3,10.8,1.8,22.2,6,32.4c5,12.1,12.8,24.5,22.3,33.4c1.4,1.3,3.5-0.8,2.1-2.1
				c-9.3-8.7-17.2-21.2-21.9-33.1c-3.8-9.7-4.3-20.4-5.5-30.6C22,0.4,18.9,0.3,19.2,2.3L19.2,2.3z"/>
		</g>
	</g>
	<g>
		<g>
			<path class="st0" d="M48.9,66.1c-0.3-3,0.2-5.9,1.6-8.5c0.9-1.7-1.7-3.2-2.6-1.5c-1.7,3.1-2.4,6.5-2.1,10
				C46.1,68,49.1,68.1,48.9,66.1L48.9,66.1z"/>
		</g>
	</g>
	<g>
		<g>
			<path class="st0" d="M36.9,66.2c4.2-1.8,8.2-0.3,11.4,2.7c1.4,1.3,3.5-0.8,2.1-2.1c-4.3-4-9.6-5.5-15-3.1
				C33.6,64.3,35.1,66.9,36.9,66.2L36.9,66.2z"/>
		</g>
	</g>
</g>
</svg>
