<?xml version="1.0" encoding="utf-8"?>
<!-- Generator: Adobe Illustrator 21.0.0, SVG Export Plug-In . SVG Version: 6.00 Build 0)  -->
<svg version="1.1" xmlns="http://www.w3.org/2000/svg" xmlns:xlink="http://www.w3.org/1999/xlink" x="0px" y="0px"
	 viewBox="0 0 548.5 71.6" style="enable-background:new 0 0 548.5 71.6;" xml:space="preserve">
<style type="text/css">
	.st0{fill:none;stroke:#EE9A26;stroke-width:5.8377;stroke-miterlimit:10;}
	.st1{fill:#EE9A26;}
	.st2{fill:#19ABCC;}
	.st3{fill:#BCCB2C;}
	.st4{fill:none;}
	.st5{font-family:'NeoSans-Black';}
	.st6{font-size:17.5132px;}
</style>
<g id="Layer_2">
</g>
<g id="Layer_1">
	<g>
		<line class="st0" x1="265" y1="42.2" x2="463.7" y2="42.2"/>
		<line class="st0" x1="43.8" y1="42.2" x2="243.3" y2="42.2"/>
		<g>
			<path class="st1" d="M32.8,33.8c4.6,0,8.3,3.7,8.3,8.3s-3.7,8.3-8.3,8.3s-8.3-3.7-8.3-8.3S28.2,33.8,32.8,33.8 M32.8,28
				c-7.8,0-14.2,6.3-14.2,14.2S25,56.3,32.8,56.3S46.9,50,46.9,42.2S40.6,28,32.8,28L32.8,28z"/>
		</g>
		<g>
			<polygon class="st1" points="43.8,38.9 43.8,45.3 141.8,45.3 148.3,38.9 			"/>
			<polygon class="st2" points="463.3,38.9 369,38.9 362.6,45.3 463.3,45.3 			"/>
		</g>
		<g>
			<path class="st3" d="M253.5,33.8c4.6,0,8.3,3.7,8.3,8.3s-3.7,8.3-8.3,8.3s-8.3-3.7-8.3-8.3S248.9,33.8,253.5,33.8 M253.5,28
				c-7.8,0-14.2,6.3-14.2,14.2s6.3,14.2,14.2,14.2s14.2-6.3,14.2-14.2S261.3,28,253.5,28L253.5,28z"/>
		</g>
		<g>
			<path class="st2" d="M474.2,33.8c4.6,0,8.3,3.7,8.3,8.3s-3.7,8.3-8.3,8.3s-8.3-3.7-8.3-8.3S469.6,33.8,474.2,33.8 M474.2,28
				c-7.8,0-14.2,6.3-14.2,14.2s6.3,14.2,14.2,14.2s14.2-6.3,14.2-14.2S482,28,474.2,28L474.2,28z"/>
		</g>
		<circle class="st2" cx="474.2" cy="42.2" r="3.3"/>
		<rect x="18.6" y="8.2" class="st4" width="313.9" height="39.6"/>
		<text transform="matrix(1 0 0 1 18.6309 21.7542)" class="st1 st5 st6">1ste jaar</text>
		<rect x="239.3" y="8.2" class="st4" width="313.9" height="39.6"/>
		<text transform="matrix(1 0 0 1 239.3408 21.7542)" class="st3 st5 st6">2de jaar</text>
		<rect x="460.1" y="8.2" class="st4" width="313.9" height="39.6"/>
		<text transform="matrix(1 0 0 1 460.0508 21.7542)" class="st2 st5 st6">3de jaar</text>
	</g>
	<g>
		<g>
			<polygon class="st3" points="148.3,38.9 141.8,45.3 242.2,45.3 242.2,38.9 			"/>
		</g>
		<g>
			<polygon class="st3" points="369,38.9 262.7,38.9 262.7,45.3 362.6,45.3 			"/>
		</g>
	</g>
</g>
</svg>
