<?xml version="1.0" encoding="utf-8"?>
<!-- Generator: Adobe Illustrator 21.0.2, SVG Export Plug-In . SVG Version: 6.00 Build 0)  -->
<svg version="1.1" id="Layer_1" xmlns="http://www.w3.org/2000/svg" xmlns:xlink="http://www.w3.org/1999/xlink" x="0px" y="0px"
	 viewBox="0 0 729.9 565.4" style="enable-background:new 0 0 729.9 565.4;" xml:space="preserve">
<style type="text/css">
	.st0{fill:none;stroke:#F09900;stroke-width:2;stroke-miterlimit:10;}
	.st1{fill:none;stroke:#F09900;stroke-miterlimit:10;}
	.st2{opacity:0.25;}
	.st3{fill:none;stroke:#5B3800;stroke-width:1.1817;stroke-miterlimit:10;}
	.st4{fill:none;stroke:#5B3800;stroke-width:0.5909;stroke-miterlimit:10;}
	.st5{fill:none;stroke:#BAC900;stroke-width:2.4218;stroke-miterlimit:10;}
	.st6{fill:none;stroke:#BAC900;stroke-width:1.2109;stroke-miterlimit:10;}
	.st7{fill:none;stroke:#00AACC;stroke-width:1.5596;stroke-miterlimit:10;}
	.st8{fill:none;stroke:#00AACC;stroke-width:0.7798;stroke-miterlimit:10;}
	.st9{fill:none;stroke:#00AACC;stroke-width:0.8301;stroke-miterlimit:10;}
	.st10{fill:none;stroke:#00AACC;stroke-width:0.415;stroke-miterlimit:10;}
	.st11{fill:none;stroke:#CE2477;stroke-width:1.62;stroke-miterlimit:10;}
	.st12{fill:none;stroke:#CE2477;stroke-width:0.81;stroke-miterlimit:10;}
	.st13{fill:none;stroke:#F09900;stroke-width:1.6851;stroke-miterlimit:10;}
	.st14{fill:none;stroke:#F09900;stroke-width:0.8426;stroke-miterlimit:10;}
	.st15{fill:none;stroke:#DDDDDD;stroke-width:2.9719;stroke-miterlimit:10;}
	.st16{fill:none;stroke:#DDDDDD;stroke-width:1.486;stroke-miterlimit:10;}
	.st17{fill:none;stroke:#A0A0A0;stroke-width:1.163;stroke-miterlimit:10;}
	.st18{fill:none;stroke:#A0A0A0;stroke-width:0.5815;stroke-miterlimit:10;}
	.st19{opacity:0.5;}
	.st20{fill:none;stroke:#CE2477;stroke-width:2.0356;stroke-miterlimit:10;}
	.st21{fill:none;stroke:#CE2477;stroke-width:1.0178;stroke-miterlimit:10;}
	.st22{fill:none;stroke:#00AACC;stroke-width:1.3141;stroke-miterlimit:10;}
	.st23{fill:none;stroke:#00AACC;stroke-width:0.657;stroke-miterlimit:10;}
	.st24{fill:none;stroke:#CE2477;stroke-width:0.9073;stroke-miterlimit:10;}
	.st25{fill:none;stroke:#CE2477;stroke-width:0.4537;stroke-miterlimit:10;}
	.st26{fill:none;stroke:#CE2477;stroke-width:1.0686;stroke-miterlimit:10;}
	.st27{fill:none;stroke:#CE2477;stroke-width:0.5343;stroke-miterlimit:10;}
</style>
<polygon class="st0" points="83.3,27.8 71.3,59.8 98.3,66.8 "/>
<polyline class="st0" points="98,65.9 129.3,59.8 113.3,16.8 84.3,26.8 "/>
<polyline class="st1" points="84.8,28.3 107.8,47.3 129,58.9 "/>
<polyline class="st1" points="112.4,17.1 107.8,47.3 70.8,59.3 "/>
<g class="st2">
	<polygon class="st3" points="311.5,0.8 291.5,3.6 295.5,19.6 	"/>
	<polyline class="st3" points="295.9,19.2 307.9,33.7 325.7,13.3 312.3,1 	"/>
	<polyline class="st4" points="311.7,1.7 308.3,19 308.3,33.3 	"/>
	<polyline class="st4" points="325.3,12.9 308.3,19 291.7,3.2 	"/>
</g>
<g>
	<polygon class="st5" points="108.5,162.3 108.1,136.6 143.6,100.2 167.5,98.1 166.2,125.6 132.4,160.3 	"/>
	<polygon class="st6" points="167.5,98.1 144.6,107.9 111.6,143.4 109.6,161.4 124.7,156.1 157.6,120.5 	"/>
	<polyline class="st6" points="108.1,136.6 111.6,143.4 122.7,156.8 132.4,160.3 	"/>
	<polyline class="st6" points="142.6,101.2 144.6,109 157,122 166.2,125.6 	"/>
</g>
<g>
	<polygon class="st7" points="15.6,99.2 0.8,114.8 3.2,128.8 17.2,141.3 34.4,137.4 42.2,123.4 39.8,103.9 	"/>
	<polyline class="st8" points="17.2,141.3 15.6,100.7 34.4,137.4 	"/>
	<polyline class="st8" points="16.7,100 42.2,123.4 3,127.8 16,98.8 	"/>
</g>
<g>
	<polygon class="st9" points="454.7,21.1 452.2,9.9 445.4,6.8 435.7,9.2 432.2,17.9 436.1,25.5 445.4,30.4 	"/>
	<polyline class="st10" points="435.7,9.2 454,20.7 432.2,17.9 	"/>
	<polyline class="st10" points="454,21.4 436.1,25.5 445.9,7 454.7,21.4 	"/>
</g>
<g>
	<polygon class="st11" points="195.3,21.5 195.3,47.4 226.9,52.3 237.5,38.1 237.5,14.2 210.7,11.8 	"/>
	<polyline class="st11" points="195.5,22.2 226.1,24.7 237.5,14.2 	"/>
	<line class="st11" x1="226.1" y1="24.7" x2="226.1" y2="52.2"/>
	<polyline class="st12" points="211.1,12.2 211.1,33.7 195.7,47.8 	"/>
	<line class="st12" x1="211.5" y1="33.7" x2="237.5" y2="37.7"/>
</g>
<g>
	<polygon class="st13" points="38.4,352.9 10,357.4 16.1,380.1 	"/>
	<polyline class="st13" points="16.6,379.5 34.1,399.9 59,370.3 39.6,353.2 	"/>
	<polyline class="st14" points="38.7,354.2 34.3,379 34.7,399.3 	"/>
	<polyline class="st14" points="58.4,369.7 34.3,379 10.1,356.9 	"/>
</g>
<g>
	<polygon class="st15" points="82.1,274.5 92,224.7 50.7,220.9 	"/>
	<polyline class="st15" points="51.5,222.1 7,238.5 40.7,297.8 80.8,276.2 	"/>
	<polyline class="st16" points="79.7,274.1 41.5,251.7 7.7,239.8 	"/>
	<polyline class="st16" points="41.9,297.1 41.5,251.7 92.9,225.3 	"/>
</g>
<g>
	<polygon class="st17" points="717.4,34.4 729,18.3 715,10.2 	"/>
	<polyline class="st17" points="715,10.7 696.5,9.3 698.9,35.9 716.7,34.8 	"/>
	<polyline class="st18" points="716.6,33.9 706.7,19.7 696.6,9.9 	"/>
	<polyline class="st18" points="699.4,35.9 706.7,19.7 729.2,18.6 	"/>
</g>
<g class="st19">
	<polygon class="st20" points="126.8,322.3 147.8,314.4 176.1,334.8 176.8,355.2 154.4,362.2 127.4,342.8 	"/>
	<polygon class="st21" points="176.8,355.2 169.8,337.9 142.1,319.5 127.4,323.1 131.2,334.7 158.9,353.1 	"/>
	<polyline class="st21" points="147.8,314.4 142.1,319.5 130.7,333.2 127.4,342.8 	"/>
	<polyline class="st21" points="175.3,334.2 168.8,338.3 157.7,353 154.4,362.2 	"/>
</g>
<g class="st2">
	<polygon class="st22" points="76.9,535.2 59.3,530.8 50,538.4 46.7,553.8 56.7,564.8 70.3,564.6 83.6,554.8 	"/>
	<polyline class="st23" points="46.7,553.8 75.8,535.8 56.7,564.8 	"/>
	<polyline class="st23" points="76.8,536.2 70.3,564.6 50.7,537.8 77.4,535.3 	"/>
</g>
<g>
	<polygon class="st24" points="540.1,29.2 527.5,36.3 533.9,53.1 543.7,54.3 555.3,47.6 549.1,34 	"/>
	<polyline class="st24" points="539.8,29.4 547.1,45 555.3,47.6 	"/>
	<line class="st24" x1="547.1" y1="45" x2="533.7" y2="52.6"/>
	<polyline class="st25" points="549,34.3 538.6,40.2 527.4,36.6 	"/>
	<line class="st25" x1="538.7" y1="40.4" x2="543.9" y2="54.2"/>
</g>
<g>
	<polygon class="st26" points="112.2,421 97.4,429.4 104.9,449.1 116.4,450.5 130.1,442.8 122.8,426.6 	"/>
	<polyline class="st26" points="111.9,421.3 120.4,439.7 130.1,442.8 	"/>
	<line class="st26" x1="120.4" y1="439.7" x2="104.7" y2="448.6"/>
	<polyline class="st27" points="122.7,427 110.4,434 97.3,429.8 	"/>
	<line class="st27" x1="110.5" y1="434.2" x2="116.7" y2="450.4"/>
</g>
</svg>
